<?xml version="1.0" encoding="UTF-8"?><svg xmlns="http://www.w3.org/2000/svg" viewBox="0 0 258.36 51.02"><defs><style>.d{fill:#fff;}</style></defs><g id="a"/><g id="b"><g id="c"><g><path class="d" d="M68.16,40.75c-2.81,0-5.22-.57-7.24-1.71-2.02-1.14-3.57-2.76-4.66-4.87-1.09-2.1-1.63-4.59-1.63-7.47s.54-5.27,1.63-7.39c1.09-2.12,2.62-3.77,4.61-4.95,1.98-1.18,4.31-1.78,6.99-1.78,1.8,0,3.48,.29,5.03,.86s2.92,1.44,4.08,2.58c1.17,1.15,2.07,2.59,2.73,4.32,.65,1.73,.98,3.76,.98,6.08v2.08h-23.03v-4.69h15.91c0-1.09-.24-2.05-.71-2.89s-1.13-1.5-1.96-1.98c-.83-.48-1.8-.72-2.9-.72s-2.16,.26-3.05,.79c-.88,.53-1.57,1.23-2.07,2.11s-.75,1.86-.76,2.94v4.46c0,1.35,.25,2.51,.75,3.5,.5,.98,1.22,1.74,2.14,2.27,.92,.53,2.02,.8,3.28,.8,.84,0,1.61-.12,2.31-.36,.7-.24,1.3-.59,1.79-1.07,.5-.47,.88-1.05,1.14-1.74l7,.46c-.35,1.68-1.08,3.15-2.17,4.39-1.1,1.25-2.5,2.22-4.23,2.91-1.72,.69-3.71,1.04-5.96,1.04Z"/><path class="d" d="M89.42,9.43c-1.12,0-2.09-.37-2.89-1.12-.8-.75-1.2-1.65-1.2-2.7s.4-1.96,1.21-2.71c.8-.75,1.76-1.13,2.88-1.13s2.09,.37,2.89,1.12c.8,.75,1.2,1.65,1.2,2.7s-.4,1.96-1.2,2.71c-.8,.75-1.76,1.13-2.89,1.13Zm-3.8,30.79V12.95h7.56v27.27h-7.56Z"/><path class="d" d="M106.78,24.45v15.77h-7.56V12.95h7.21v4.81h.32c.6-1.59,1.62-2.84,3.04-3.77,1.42-.93,3.14-1.39,5.17-1.39,1.89,0,3.54,.42,4.95,1.24,1.41,.83,2.5,2.01,3.29,3.54,.78,1.53,1.17,3.36,1.17,5.48v17.37h-7.56V24.2c.01-1.67-.41-2.97-1.28-3.92-.86-.94-2.05-1.41-3.57-1.41-1.02,0-1.92,.22-2.69,.66-.78,.44-1.38,1.07-1.81,1.91s-.65,1.84-.67,3.01Z"/><path class="d" d="M142.04,40.22V3.86h7.69v30.02h15.59v6.34h-23.28Z"/><path class="d" d="M182.6,40.75c-2.76,0-5.14-.59-7.15-1.77s-3.55-2.82-4.64-4.94c-1.09-2.11-1.63-4.57-1.63-7.36s.54-5.28,1.63-7.4c1.09-2.11,2.64-3.76,4.64-4.94,2.01-1.18,4.39-1.77,7.15-1.77s5.14,.59,7.15,1.77c2.01,1.18,3.55,2.82,4.64,4.94,1.09,2.11,1.63,4.58,1.63,7.4s-.54,5.25-1.63,7.36c-1.09,2.11-2.64,3.76-4.64,4.94-2.01,1.18-4.39,1.77-7.15,1.77Zm.04-5.86c1.25,0,2.3-.36,3.14-1.07,.84-.72,1.48-1.7,1.91-2.94,.43-1.24,.65-2.66,.65-4.24s-.22-3-.65-4.24c-.43-1.24-1.07-2.23-1.91-2.95-.84-.72-1.89-1.08-3.14-1.08s-2.33,.36-3.19,1.08c-.86,.72-1.5,1.7-1.94,2.95-.43,1.24-.65,2.66-.65,4.24s.22,3,.65,4.24c.43,1.24,1.08,2.22,1.94,2.94,.86,.72,1.92,1.07,3.19,1.07Z"/><path class="d" d="M213.24,51.02c-2.45,0-4.55-.33-6.29-1-1.75-.67-3.13-1.58-4.16-2.73-1.03-1.15-1.7-2.44-2.01-3.87l7-.94c.21,.54,.55,1.05,1.01,1.53,.46,.47,1.07,.86,1.84,1.15,.76,.29,1.7,.43,2.8,.43,1.65,0,3-.4,4.08-1.2,1.07-.8,1.61-2.13,1.61-4v-4.99h-.32c-.33,.76-.83,1.47-1.49,2.15-.66,.67-1.51,1.22-2.56,1.65-1.04,.43-2.28,.64-3.73,.64-2.05,0-3.91-.48-5.58-1.43-1.67-.95-3.01-2.42-4-4.39s-1.48-4.47-1.48-7.48,.5-5.67,1.51-7.74c1.01-2.07,2.35-3.62,4.02-4.65,1.67-1.03,3.51-1.54,5.51-1.54,1.53,0,2.81,.26,3.84,.77,1.03,.52,1.86,1.15,2.49,1.92s1.12,1.51,1.46,2.25h.28v-4.58h7.51v27.54c0,2.32-.57,4.26-1.71,5.82s-2.71,2.74-4.71,3.52c-2.01,.79-4.31,1.18-6.92,1.18Zm.16-16.87c1.22,0,2.25-.3,3.1-.91,.85-.61,1.5-1.49,1.95-2.63,.46-1.14,.68-2.51,.68-4.11s-.22-2.99-.68-4.16c-.45-1.18-1.1-2.09-1.95-2.74-.85-.65-1.89-.98-3.11-.98s-2.29,.33-3.14,1c-.85,.67-1.5,1.6-1.94,2.78-.44,1.18-.66,2.55-.66,4.1s.22,2.93,.67,4.07c.44,1.14,1.09,2.02,1.94,2.65,.85,.62,1.89,.93,3.13,.93Z"/><path class="d" d="M244.94,40.75c-2.76,0-5.14-.59-7.15-1.77-2.01-1.18-3.55-2.82-4.64-4.94s-1.63-4.57-1.63-7.36,.54-5.28,1.63-7.4,2.64-3.76,4.64-4.94c2.01-1.18,4.39-1.77,7.15-1.77s5.14,.59,7.15,1.77c2.01,1.18,3.55,2.82,4.64,4.94,1.09,2.11,1.63,4.58,1.63,7.4s-.54,5.25-1.63,7.36c-1.09,2.11-2.64,3.76-4.64,4.94-2.01,1.18-4.39,1.77-7.15,1.77Zm.04-5.86c1.25,0,2.3-.36,3.14-1.07,.84-.72,1.48-1.7,1.91-2.94,.43-1.24,.65-2.66,.65-4.24s-.22-3-.65-4.24c-.43-1.24-1.07-2.23-1.91-2.95-.84-.72-1.89-1.08-3.14-1.08s-2.33,.36-3.19,1.08c-.86,.72-1.5,1.7-1.94,2.95-.43,1.24-.65,2.66-.65,4.24s.22,3,.65,4.24c.43,1.24,1.08,2.22,1.94,2.94,.86,.72,1.92,1.07,3.19,1.07Z"/></g><g><path class="d" d="M29.3,15.38c-1.39-.72-3.11-1.09-5.16-1.09h-4.41v20.85h4.39c2.04,0,3.77-.36,5.17-1.09,1.4-.73,2.45-1.86,3.16-3.4,.71-1.54,1.06-3.53,1.06-5.96s-.35-4.39-1.06-5.92c-.71-1.53-1.76-2.66-3.15-3.38Z"/><path class="d" d="M24.89,0C11.14,0,0,11.14,0,24.89s11.14,24.89,24.89,24.89,24.89-11.14,24.89-24.89S38.63,0,24.89,0Zm13.61,33.47c-1.28,2.45-3.12,4.33-5.51,5.64-2.39,1.31-5.25,1.96-8.57,1.96H12.82V8.37h11.69c3.29,0,6.12,.65,8.49,1.96,2.37,1.3,4.2,3.17,5.48,5.61s1.92,5.35,1.92,8.75-.64,6.33-1.92,8.78Z"/></g></g></g></svg>