<svg id="Ebene_1" data-name="Ebene 1" xmlns="http://www.w3.org/2000/svg" xmlns:xlink="http://www.w3.org/1999/xlink" viewBox="0 0 500 500"><defs><style>.cls-1{fill:url(#Unbenannter_Verlauf_2);}.cls-2{fill:url(#Unbenannter_Verlauf_2-2);}</style><linearGradient id="Unbenannter_Verlauf_2" x1="-3905.69" y1="63" x2="-1393.97" y2="63" gradientTransform="translate(-2401 313) rotate(180)" gradientUnits="userSpaceOnUse"><stop offset="0" stop-color="#95c11e"/><stop offset="0.03" stop-color="#81bb23"/><stop offset="0.11" stop-color="#4dac2e"/><stop offset="0.2" stop-color="#009640"/><stop offset="0.4" stop-color="#009ee3"/><stop offset="0.6" stop-color="#0069b4"/><stop offset="0.8" stop-color="#302683"/><stop offset="1" stop-color="#af1280"/></linearGradient><linearGradient id="Unbenannter_Verlauf_2-2" x1="-1007.03" y1="-455.3" x2="1504.7" y2="-455.3" gradientTransform="translate(500.01 -205.3) rotate(180)" xlink:href="#Unbenannter_Verlauf_2"/></defs><path class="cls-1" d="M250,0C112,0,0,112.2,0,250S112.2,500,250,500,499.87,387.93,500,250.24v-.48C499.87,112.07,387.72,0,250,0Zm-.2,469.2C129,469.2,30.6,371,30.6,250S129,30.8,250,30.8C370.8,30.8,469.21,129,469.21,250S370.6,469.2,249.8,469.2Z"/><path class="cls-2" d="M352.19,188.13c-5.47-9.65-11.33-12.22-22.07-13.3-1.26-.12-2.58-.21-4-.29-1.93-.13-4.3-.25-7-.36-16-.59-44.19-.93-69.14-.93h-.27c-24.94,0-53.11.34-69,.92-2.63.11-4.93.23-6.82.35-1.58.09-3.06.2-4.46.34-10.47,1.11-16.22,3.75-21.56,13.25a53.22,53.22,0,0,0-5.6,15c-2.57,11-3.88,26-3.88,46.87v0h0v0c0,1.61,0,3.18,0,4.73.3,29.6,3.49,47,9.42,57.11,5.47,9.65,11.33,12.22,22.07,13.3,1.26.12,2.58.21,4,.29,1.94.13,4.3.25,7,.36,16,.59,44.18.93,69.13.93h.27c25,0,53.11-.34,69-.92,2.63-.11,4.93-.23,6.82-.35,1.58-.09,3.06-.2,4.47-.34,10.46-1.11,16.21-3.75,21.55-13.25a53.22,53.22,0,0,0,5.6-15c2.57-11,3.88-26.05,3.88-46.87v0h0v0c0-1.61,0-3.18,0-4.73C361.31,215.64,358.12,198.25,352.19,188.13ZM218.11,292.36V207.64L288.71,250Z"/></svg>